<!DOCTYPE svg PUBLIC "-//W3C//DTD SVG 1.1//EN" "http://www.w3.org/Graphics/SVG/1.1/DTD/svg11.dtd">
<!-- Uploaded to: SVG Repo, www.svgrepo.com, Transformed by: SVG Repo Mixer Tools -->
<svg version="1.1" id="Icons" xmlns="http://www.w3.org/2000/svg" xmlns:xlink="http://www.w3.org/1999/xlink" viewBox="0 0 32 32" xml:space="preserve" width="800px" height="800px" fill="#6B6C6E">
<g id="SVGRepo_bgCarrier" stroke-width="0"/>
<g id="SVGRepo_tracerCarrier" stroke-linecap="round" stroke-linejoin="round"/>
<g id="SVGRepo_iconCarrier"> <style type="text/css"> .st0{fill:none;stroke:#6B6C6E;stroke-width:2;stroke-linecap:round;stroke-linejoin:round;stroke-miterlimit:10;} </style> <path class="st0" d="M9,21.6c-3-0.6-5-2.2-5-6.3C4,8.5,9.4,3,16,3s12,5.5,12,12.3c0,4.1-2,5.7-5,6.3"/> <g> <path class="st0" d="M15,28h2c3.3,0,6-2.7,6-6v-3.3c-2.1-0.4-4.5-0.7-7-0.7s-4.9,0.2-7,0.7V22C9,25.3,11.7,28,15,28z"/> </g> <line class="st0" x1="14" y1="21" x2="14" y2="23"/> <line class="st0" x1="18" y1="21" x2="18" y2="23"/> </g>
</svg>