<!DOCTYPE svg PUBLIC "-//W3C//DTD SVG 1.1//EN" "http://www.w3.org/Graphics/SVG/1.1/DTD/svg11.dtd">
<!-- Uploaded to: SVG Repo, www.svgrepo.com, Transformed by: SVG Repo Mixer Tools -->
<svg fill="#6B6C6E" height="800px" width="800px" version="1.1" id="Layer_1" xmlns="http://www.w3.org/2000/svg" xmlns:xlink="http://www.w3.org/1999/xlink" viewBox="0 0 512 512" xml:space="preserve">
<g id="SVGRepo_bgCarrier" stroke-width="0"/>
<g id="SVGRepo_tracerCarrier" stroke-linecap="round" stroke-linejoin="round"/>
<g id="SVGRepo_iconCarrier"> <g> <g> <path d="M453.645,156.455c-19.922-29.617-47.304-54.031-79.792-71.291c18.977-17.329,31.889-43.047,35.596-73.454 c0.588-4.825-2.229-9.417-6.797-11.079c-4.569-1.662-9.677,0.047-12.327,4.123c-4.603,7.081-26.518,7.217-44.126,7.325 c-18.877,0.116-38.395,0.237-53.462,6.471c-9.735,4.028-18.629,11.13-26.294,20.865V26.461c0-5.768-4.676-10.444-10.444-10.444 c-5.768,0-10.444,4.676-10.444,10.444v12.947c-6.728-8.576-15.363-16.334-26.294-20.858c-15.067-6.234-34.585-6.354-53.462-6.471 c-17.609-0.109-39.523-0.243-44.126-7.325c-2.649-4.074-7.758-5.786-12.327-4.123c-4.568,1.662-7.385,6.254-6.797,11.079 c3.709,30.408,16.621,56.126,35.598,73.455c-32.477,17.253-59.85,41.654-79.771,71.258 c-23.762,35.313-36.323,77.372-36.323,121.631c0,62.486,24.336,121.233,68.524,165.422S193.514,512,256,512 s121.233-24.336,165.422-68.524c44.189-44.189,68.524-102.936,68.524-165.422C489.947,233.81,477.394,191.761,453.645,156.455z M411.61,138.135c-1.166-0.197-2.369-0.222-3.571-0.009c-0.254,0.046-25.528,4.281-41.653-15.18 c-6.969-8.411-13.332-15.204-19.361-20.702c2.526-1.034,4.997-2.182,7.41-3.441C376.322,109.035,395.507,122.345,411.61,138.135z M127.895,30.426c11.035,2.375,24.211,2.456,37.779,2.54c16.868,0.104,34.312,0.212,45.604,4.885 c22.561,9.335,32.529,41.767,34.28,48.099v15.693c0,5.768,4.676,10.444,10.444,10.444c5.768,0,10.444-4.676,10.444-10.444V85.949 c1.76-6.356,11.734-38.768,34.28-48.098c11.292-4.673,28.735-4.78,45.604-4.885c13.568-0.084,26.744-0.165,37.779-2.54 c-9.663,30.142-31.189,51.475-58.434,56.429c-0.196,0.036-0.384,0.089-0.575,0.135c-13.406-6.372-26.862-7.512-44.039-7.512 c-5.768,0-10.444,4.676-10.444,10.444c0,5.768,4.676,10.444,10.444,10.444c27.385,0,40.695,1.452,69.244,35.907 c12.581,15.185,28.591,20.655,41.114,22.399c-14.046,19.157-44.626,47.64-92.765,25.505 c-19.199-8.828-30.025-23.395-32.176-43.294c-0.507-4.689-4.094-8.458-8.753-9.194l-0.178-0.028 c-2.823-0.444-5.709,0.285-7.979,2.023c-2.271,1.739-3.73,4.331-4.036,7.175c-2.145,19.911-12.971,34.486-32.179,43.318 c-48.147,22.139-78.725-6.355-92.766-25.505c12.522-1.745,28.535-7.217,41.114-22.399c28.549-34.455,41.859-35.906,69.244-35.906 c5.768,0,10.444-4.676,10.444-10.444c0-5.768-4.676-10.444-10.444-10.444c-17.178,0-30.633,1.14-44.039,7.512 c-0.191-0.046-0.379-0.099-0.575-0.135C159.082,81.902,137.557,60.57,127.895,30.426z M157.569,98.804 c2.411,1.26,4.883,2.405,7.408,3.44c-6.03,5.498-12.392,12.292-19.361,20.702c-15.918,19.21-40.664,15.343-41.653,15.179 c-1.203-0.214-2.406-0.19-3.571,0.008C116.496,122.345,135.682,109.036,157.569,98.804z M256.001,491.113 c-117.48,0-213.058-95.577-213.058-213.058c0-50.441,17.47-95.895,48.83-130.905c-0.231,1.897,0.052,3.854,0.886,5.651 c0.425,0.916,10.636,22.629,31.376,39.739c19.777,16.316,52.839,31.4,98.043,10.615c14.955-6.876,26.368-16.674,33.923-28.966 c7.556,12.292,18.969,22.091,33.923,28.966c15.746,7.241,30.016,10.129,42.768,10.129c23.855-0.001,42.387-10.111,55.275-20.743 c20.74-17.11,30.951-38.824,31.376-39.74c0.833-1.797,1.116-3.754,0.887-5.649c31.359,35.011,48.829,80.465,48.829,130.902 C469.059,395.534,373.481,491.113,256.001,491.113z"/> </g> </g> <g> <g> <path d="M160.041,400.439c-27.742-22.618-46.686-54.316-53.338-89.257c-1.079-5.666-6.548-9.382-12.213-8.306 c-5.666,1.079-9.385,6.547-8.306,12.213c7.571,39.76,29.113,75.821,60.659,101.539c1.938,1.58,4.273,2.35,6.593,2.35 c3.031,0,6.037-1.313,8.1-3.846C165.181,410.661,164.511,404.083,160.041,400.439z"/> </g> </g> <g> <g> <path d="M93.572,272.132c-5.768,0-10.444,4.676-10.444,10.444v0.116c0,5.768,4.676,10.444,10.444,10.444 c5.768,0,10.444-4.676,10.444-10.444v-0.116C104.016,276.808,99.341,272.132,93.572,272.132z"/> </g> </g> </g>
</svg>